<svg width="25" height="25" viewBox="0 0 25 25" fill="none" xmlns="http://www.w3.org/2000/svg">
<g clip-path="url(#clip0_100_467)">
<path d="M9.866 11.182C10.8043 12.8305 12.1695 14.1957 13.818 15.134L14.702 13.896C14.8442 13.6969 15.0543 13.5569 15.2928 13.5023C15.5313 13.4478 15.7814 13.4825 15.996 13.6C17.4103 14.3729 18.9722 14.8378 20.579 14.964C20.8298 14.9839 21.0638 15.0975 21.2345 15.2823C21.4052 15.4671 21.5 15.7094 21.5 15.961V20.423C21.5001 20.6706 21.4083 20.9094 21.2424 21.0932C21.0765 21.277 20.8483 21.3927 20.602 21.418C20.072 21.473 19.538 21.5 19 21.5C10.44 21.5 3.5 14.56 3.5 6C3.5 5.462 3.527 4.928 3.582 4.398C3.60725 4.1517 3.72298 3.92352 3.90679 3.75763C4.0906 3.59175 4.32941 3.49995 4.577 3.5H9.039C9.29056 3.49997 9.5329 3.59475 9.71768 3.76545C9.90247 3.93615 10.0161 4.17022 10.036 4.421C10.1622 6.02779 10.6271 7.58968 11.4 9.004C11.5175 9.21856 11.5522 9.46874 11.4977 9.7072C11.4431 9.94565 11.3031 10.1558 11.104 10.298L9.866 11.182ZM7.344 10.525L9.244 9.168C8.70478 8.00409 8.33535 6.76884 8.147 5.5H5.51C5.504 5.666 5.501 5.833 5.501 6C5.5 13.456 11.544 19.5 19 19.5C19.167 19.5 19.334 19.497 19.5 19.49V16.853C18.2312 16.6646 16.9959 16.2952 15.832 15.756L14.475 17.656C13.9287 17.4437 13.398 17.1931 12.887 16.906L12.829 16.873C10.8676 15.7567 9.24328 14.1324 8.127 12.171L8.094 12.113C7.80691 11.602 7.55628 11.0713 7.344 10.525Z" fill="white"/>
</g>
<defs>
<clipPath id="clip0_100_467">
<rect width="24" height="24" fill="white" transform="translate(0.5 0.5)"/>
</clipPath>
</defs>
</svg>
