<svg width="25" height="25" viewBox="0 0 25 25" fill="none" xmlns="http://www.w3.org/2000/svg">
<g clip-path="url(#clip0_100_479)">
<path d="M7.75301 18.994L8.47701 19.417C9.69795 20.1291 11.0866 20.5029 12.5 20.5C14.0823 20.5 15.629 20.0308 16.9446 19.1518C18.2602 18.2727 19.2855 17.0233 19.8911 15.5615C20.4966 14.0997 20.655 12.4911 20.3463 10.9393C20.0376 9.38743 19.2757 7.96197 18.1569 6.84315C17.038 5.72433 15.6126 4.9624 14.0607 4.65372C12.5089 4.34504 10.9004 4.50346 9.43855 5.10896C7.97674 5.71447 6.72731 6.73984 5.84826 8.05544C4.96921 9.37103 4.50001 10.9177 4.50001 12.5C4.50001 13.936 4.87701 15.313 5.58401 16.524L6.00601 17.248L5.35301 19.649L7.75301 18.994ZM2.50401 22.5L3.85601 17.532C2.96515 16.0049 2.49711 14.268 2.50001 12.5C2.50001 6.977 6.97701 2.5 12.5 2.5C18.023 2.5 22.5 6.977 22.5 12.5C22.5 18.023 18.023 22.5 12.5 22.5C10.7328 22.5029 8.99667 22.0352 7.47001 21.145L2.50401 22.5ZM8.89101 7.808C9.02501 7.798 9.16001 7.798 9.29401 7.804C9.34801 7.808 9.40201 7.814 9.45601 7.82C9.61501 7.838 9.79001 7.935 9.84901 8.069C10.147 8.745 10.437 9.426 10.717 10.109C10.779 10.261 10.742 10.456 10.624 10.646C10.5429 10.7745 10.4551 10.8986 10.361 11.018C10.248 11.163 10.005 11.429 10.005 11.429C10.005 11.429 9.90601 11.547 9.94401 11.694C9.95801 11.75 10.004 11.831 10.046 11.899L10.105 11.994C10.361 12.421 10.705 12.854 11.125 13.262C11.245 13.378 11.362 13.497 11.488 13.608C11.956 14.021 12.486 14.358 13.058 14.608L13.063 14.61C13.148 14.647 13.191 14.667 13.315 14.72C13.377 14.746 13.441 14.769 13.506 14.786C13.5732 14.8031 13.6439 14.7999 13.7093 14.7767C13.7746 14.7536 13.8316 14.7116 13.873 14.656C14.597 13.779 14.663 13.722 14.669 13.722V13.724C14.7193 13.6771 14.7791 13.6415 14.8443 13.6196C14.9095 13.5977 14.9786 13.59 15.047 13.597C15.107 13.601 15.168 13.612 15.224 13.637C15.755 13.88 16.624 14.259 16.624 14.259L17.206 14.52C17.304 14.567 17.393 14.678 17.396 14.785C17.4 14.852 17.406 14.96 17.383 15.158C17.351 15.417 17.273 15.728 17.195 15.891C17.1416 16.0022 17.0707 16.1042 16.985 16.193C16.8841 16.2989 16.7736 16.3954 16.655 16.481C16.614 16.5119 16.5723 16.5419 16.53 16.571C16.4056 16.6499 16.2778 16.7233 16.147 16.791C15.8895 16.9278 15.6052 17.0063 15.314 17.021C15.129 17.031 14.944 17.045 14.758 17.035C14.75 17.035 14.19 16.948 14.19 16.948C12.7683 16.574 11.4534 15.8735 10.35 14.902C10.124 14.703 9.91501 14.489 9.70101 14.276C8.81101 13.391 8.13901 12.436 7.73101 11.534C7.52218 11.0913 7.40938 10.6094 7.40001 10.12C7.39589 9.51285 7.59436 8.92167 7.96401 8.44C8.03701 8.346 8.10601 8.248 8.22501 8.135C8.35201 8.015 8.43201 7.951 8.51901 7.907C8.63469 7.84903 8.76088 7.81502 8.89001 7.807L8.89101 7.808Z" fill="white"/>
</g>
<defs>
<clipPath id="clip0_100_479">
<rect width="24" height="24" fill="white" transform="translate(0.5 0.5)"/>
</clipPath>
</defs>
</svg>
